<?xml version="1.0" encoding="iso-8859-1"?>
<!-- Uploaded to: SVG Repo, www.svgrepo.com, Generator: SVG Repo Mixer Tools -->
<svg fill="#000000" height="800px" width="800px" version="1.1" id="Layer_1" xmlns="http://www.w3.org/2000/svg" xmlns:xlink="http://www.w3.org/1999/xlink" 
	 viewBox="0 0 512 512" xml:space="preserve">
<g>
	<g>
		<path d="M391.699,283.53L331.867,403.2H180.134l-59.834-119.67c-11.169,13.336-17.901,30.514-17.901,49.27v64
			c45.06,0,82.44,33.439,88.671,76.8h129.857c6.231-43.361,43.611-76.8,88.671-76.8v-64
			C409.599,314.044,402.867,296.867,391.699,283.53z"/>
	</g>
</g>
<g>
	<g>
		<ellipse cx="256" cy="179.2" rx="64" ry="76.8"/>
	</g>
</g>
<g>
	<g>
		<path d="M428.8,185.6c0-48.946-20.457-89-37.619-113.981c-20.513-29.861-47.869-55.165-75.05-69.422L311.942,0H200.058
			l-4.188,2.196c-27.181,14.257-54.537,39.561-75.05,69.422C103.657,96.6,83.2,136.654,83.2,185.6V256h96
			c-9.595,0-18.771,1.774-27.24,4.989L203.866,364.8h104.268l51.907-103.811c-8.467-3.215-17.645-4.989-27.24-4.989h96V185.6z
			 M330.755,258.089c-14.821,17.786-34.408,29.718-55.555,34.258v39.173h-38.4v-39.174c-21.147-4.54-40.733-16.472-55.555-34.258
			C163.418,236.696,153.6,208.68,153.6,179.2s9.818-57.496,27.645-78.889C200.475,77.235,227.722,64,256,64
			s55.525,13.235,74.755,36.311C348.582,121.704,358.4,149.72,358.4,179.2S348.582,236.696,330.755,258.089z"/>
	</g>
</g>
<g>
	<g>
		<path d="M102.4,435.2H89.6c-28.278,0-51.2,22.924-51.2,51.2V512h115.2v-25.6C153.6,458.124,130.678,435.2,102.4,435.2z"/>
	</g>
</g>
<g>
	<g>
		<path d="M422.4,435.2h-12.8c-28.278,0-51.2,22.924-51.2,51.2V512h115.2v-25.6C473.6,458.124,450.678,435.2,422.4,435.2z"/>
	</g>
</g>
</svg>